# xmcd
#
# Track frame offsets: 
#        150
#        16304
#        45274
#        64724
#        114022
#        175608
#        193465
#        219949
#
# Disc length: 3105 seconds
#
# Revision: 1
# Processed by: cddbd v1.5.2PL0 Copyright (c) Steve Scherf et al.
# Submitted via: ExactAudioCopy v1.0b1
#
DISCID=5e0c1f08
DTITLE=Leszek Możdżer - Komeda
DYEAR=2011
DGENRE=Jazz
TTITLE0=Svantetic
TTITLE1=Sleep Safe and Warm
TTITLE2=Ballad for Bernt
TTITLE3=The Law and The Fist
TTITLE4=Nighttime, Daytime Requiem
TTITLE5=Cherry
TTITLE6=Crazy Girl
TTITLE7=Moja ballada
EXTD=YEAR: 2011
EXTT0=
EXTT1=
EXTT2=
EXTT3=
EXTT4=
EXTT5=
EXTT6=
EXTT7=
PLAYORDER=
